<?xml version="1.0" standalone="no"?>
<!DOCTYPE svg PUBLIC "-//W3C//DTD SVG 20010904//EN"
 "http://www.w3.org/TR/2001/REC-SVG-20010904/DTD/svg10.dtd">
<svg version="1.0" xmlns="http://www.w3.org/2000/svg"
 width="200.000000pt" height="200.000000pt" viewBox="0 0 200.000000 200.000000"
 preserveAspectRatio="xMidYMid meet">

<g transform="translate(0.000000,200.000000) scale(0.100000,-0.100000)"
fill="#000000" stroke="none">
<path d="M800 1960 c-386 -82 -674 -370 -761 -760 -33 -148 -23 -334 27 -500
24 -83 101 -225 164 -304 240 -301 614 -435 982 -351 278 63 508 237 648 490
315 570 -14 1283 -658 1425 -113 25 -285 25 -402 0z m245 -28 c6 -4 10 -36 10
-72 0 -62 1 -65 25 -65 27 0 37 23 39 88 1 33 4 37 27 37 25 0 26 -2 20 -37
-3 -21 -6 -50 -6 -64 0 -63 -88 -93 -137 -47 -19 18 -23 32 -23 79 0 81 13
105 45 81z m-135 -53 c0 -19 -32 -154 -41 -170 -10 -19 -52 -30 -70 -18 -6 4
-9 14 -6 24 4 9 10 14 15 11 4 -2 13 -2 19 2 8 5 -1 27 -27 69 -22 33 -36 63
-33 67 16 15 44 3 58 -24 19 -37 30 -32 39 15 5 26 12 35 26 35 11 0 20 -5 20
-11z m-285 -34 c0 -13 -8 -21 -22 -23 -17 -3 -23 2 -23 16 0 10 3 22 7 26 13
13 38 1 38 -19z m103 9 c35 -17 40 -29 17 -38 -22 -8 -3 -49 25 -56 34 -8 36
-28 4 -40 -30 -12 -74 9 -74 35 0 8 -9 23 -20 33 -15 14 -19 26 -14 50 7 36
17 39 62 16z m559 -5 c37 -14 44 -41 27 -98 -15 -53 -19 -57 -43 -42 -12 8
-13 16 -2 52 10 34 10 43 0 50 -19 11 -45 -15 -53 -52 -5 -28 -20 -36 -42 -21
-7 5 -4 27 9 70 19 63 19 63 51 56 17 -3 41 -10 53 -15z m140 -5 c3 -8 1 -20
-4 -25 -14 -14 -43 0 -43 22 0 24 38 26 47 3z m-771 -51 c-3 -3 5 -23 16 -44
21 -40 19 -69 -5 -69 -7 0 -25 26 -41 57 -26 54 -27 58 -10 70 13 9 21 10 31
1 7 -6 11 -13 9 -15z m754 2 c0 -3 -12 -29 -27 -60 -17 -35 -33 -55 -44 -55
-28 0 -28 11 2 78 26 57 30 62 49 52 11 -6 20 -13 20 -15z m-842 -12 c-2 -9
-17 -20 -35 -25 -39 -10 -51 -40 -29 -73 21 -32 49 -32 74 0 24 31 52 33 52 5
0 -35 -47 -70 -95 -70 -68 0 -107 61 -80 126 16 38 39 53 83 54 26 0 33 -4 30
-17z m881 -2 c10 -6 12 -21 8 -50 -6 -47 -1 -50 37 -20 25 19 29 20 43 7 13
-14 9 -20 -42 -56 -46 -33 -61 -39 -76 -31 -22 11 -22 13 -8 96 11 65 14 69
38 54z m-289 -113 c72 -17 205 -83 269 -133 112 -88 204 -232 237 -371 20 -84
22 -240 4 -314 -59 -245 -218 -419 -458 -502 -76 -26 -102 -30 -202 -30 -182
-1 -319 46 -452 156 -158 130 -241 312 -241 526 0 258 130 479 357 605 138 76
325 100 486 63z m470 -28 c15 -27 12 -66 -5 -80 -13 -10 -19 -9 -38 6 -12 11
-25 23 -29 29 -4 5 -11 6 -15 1 -4 -4 5 -18 21 -31 16 -12 25 -28 22 -34 -11
-17 -21 -14 -55 15 -49 41 -39 108 19 126 22 7 69 -12 80 -32z m-1241 -36 c36
-31 67 -59 69 -63 1 -3 -15 -25 -37 -49 -46 -50 -71 -53 -112 -12 -32 31 -33
57 -3 91 18 20 18 35 -1 43 -13 4 -14 10 -5 26 6 11 13 20 17 20 3 0 36 -25
72 -56z m1325 -58 c21 -28 23 -36 12 -46 -11 -8 -19 -8 -34 1 -16 10 -25 8
-54 -14 -26 -21 -37 -24 -46 -15 -19 19 -14 32 16 50 15 9 36 26 46 37 25 28
29 27 60 -13z m57 -85 c34 -34 39 -71 10 -71 -12 0 -21 8 -23 22 -2 12 -9 23
-16 26 -9 3 -10 -3 -2 -23 15 -38 12 -53 -10 -65 -26 -14 -55 1 -75 40 -19 37
-19 46 1 54 10 4 18 -3 26 -24 5 -17 14 -30 19 -30 5 0 4 12 -1 26 -13 34 -13
40 6 58 22 22 31 20 65 -13z m-1450 -13 c22 -12 39 -26 39 -32 -1 -19 -55 -91
-72 -94 -8 -2 -23 5 -33 14 -16 16 -16 28 0 67 4 10 3 17 -4 17 -6 0 -13 -11
-17 -26 -9 -33 -40 -29 -36 6 6 39 32 70 59 70 14 0 43 -10 64 -22z m1559 -64
c11 -12 11 -18 -2 -31 -19 -18 -38 -10 -38 16 0 33 20 40 40 15z m-52 -36 c2
-11 -14 -24 -54 -42 -58 -27 -74 -26 -74 2 0 10 19 25 48 39 54 24 75 25 80 1z
m-1585 -14 c3 -3 -1 -24 -9 -46 -18 -51 -17 -53 1 -38 8 7 15 21 15 31 0 22
18 35 32 21 15 -15 1 -60 -27 -88 -13 -13 -19 -24 -13 -24 7 0 8 -20 4 -62 -4
-35 -9 -65 -11 -67 -2 -2 -41 2 -86 10 -79 13 -97 24 -86 52 4 12 16 12 68 1
35 -7 65 -11 67 -9 3 2 8 22 12 45 7 37 6 40 -16 40 -49 0 -71 78 -34 118 19
20 69 30 83 16z m1626 -30 c5 4 13 -4 17 -16 4 -13 2 -24 -5 -26 -6 -2 -11
-12 -11 -23 0 -21 -36 -27 -42 -7 -7 20 -56 -7 -55 -29 3 -29 -27 -21 -38 11
-8 24 -6 31 14 47 13 10 32 19 42 19 10 0 19 6 19 14 0 18 21 26 37 14 7 -5
16 -7 22 -4z m15 -110 c8 -21 1 -31 -37 -51 l-32 -17 40 -11 c29 -9 41 -18 43
-34 3 -18 0 -22 -15 -18 -10 3 -47 13 -83 22 -35 8 -72 23 -82 32 -17 16 -24
53 -12 66 11 11 34 -5 34 -24 0 -27 14 -24 73 16 59 40 63 41 71 19z m-1683
-233 c23 -19 23 -21 9 -48 -20 -35 -43 -40 -69 -14 -26 26 -26 36 -1 61 25 25
32 25 61 1z m1667 7 c17 -17 15 -65 -4 -72 -29 -11 -53 -6 -64 13 -14 27 -13
37 6 55 18 19 45 21 62 4z m-1649 -147 c40 -40 -8 -97 -55 -66 -29 19 -31 38
-4 65 25 25 35 25 59 1z m1612 9 c27 -15 26 -66 -2 -80 -16 -9 -26 -8 -45 5
-30 19 -31 49 -2 69 27 19 24 19 49 6z m-1562 -154 c7 -8 11 -27 9 -43 -2 -23
-8 -29 -35 -31 -27 -3 -35 1 -44 21 -22 49 37 93 70 53z m1522 4 c37 -20 18
-80 -26 -80 -29 0 -45 19 -45 51 0 37 32 49 71 29z m-1445 -131 c21 -18 17
-47 -10 -64 -45 -30 -91 16 -61 61 15 24 44 25 71 3z m1382 -1 c18 -18 15 -42
-7 -62 -37 -34 -94 10 -71 54 12 23 59 27 78 8z m-1292 -113 c15 -23 15 -27 0
-50 -18 -28 -28 -30 -57 -15 -12 7 -19 21 -19 38 0 54 47 70 76 27z m1179 10
c22 -20 24 -44 6 -66 -24 -30 -68 -20 -77 18 -11 42 41 77 71 48z m-1059 -112
c8 -32 -6 -57 -35 -61 -28 -4 -51 14 -51 42 0 30 18 46 52 46 22 0 29 -6 34
-27z m945 7 c37 -20 18 -80 -26 -80 -27 0 -45 18 -45 45 0 40 32 55 71 35z
m-803 -29 c11 -6 8 -21 -13 -72 -34 -81 -33 -79 -50 -72 -21 8 -19 33 11 97
26 58 30 61 52 47z m62 -36 c0 -16 6 -25 15 -25 21 0 55 -36 55 -59 0 -11 -11
-32 -24 -47 l-23 -28 -49 16 c-54 17 -53 15 -27 106 13 46 22 62 35 62 13 0
18 -8 18 -25z m607 -44 c17 -34 20 -48 11 -58 -16 -20 -30 -11 -43 28 -7 19
-18 34 -26 34 -15 0 -16 -23 -4 -67 6 -24 4 -28 -14 -28 -22 0 -36 25 -48 82
-5 23 -1 29 28 42 52 23 71 16 96 -33z m-273 13 c3 -9 6 -44 6 -79 l0 -62 -42
-6 c-48 -7 -82 9 -91 42 -8 31 15 65 51 76 21 6 32 15 32 27 0 23 35 24 44 2z
m106 -14 c17 -9 40 -65 40 -97 0 -15 -99 -28 -112 -15 -17 17 -1 62 22 62 10
0 22 5 25 10 8 13 -11 13 -35 0 -13 -7 -19 -6 -23 4 -7 16 9 32 38 39 11 2 21
5 23 6 2 0 12 -4 22 -9z m-262 -22 c13 -13 16 -66 6 -92 -7 -19 -64 -22 -95
-6 -24 13 -25 46 -2 59 14 7 15 12 5 23 -6 8 -9 18 -5 21 11 12 78 8 91 -5z"/>
<path d="M797 1413 c-87 -47 -156 -88 -154 -90 3 -2 81 37 173 86 93 50 162
91 154 90 -8 0 -86 -39 -173 -86z"/>
<path d="M1000 1288 c2 -117 2 -219 1 -225 -1 -10 -37 -13 -145 -13 l-144 0
-7 93 c-4 50 -13 106 -21 122 -8 17 -11 21 -8 10 4 -11 10 -85 14 -165 8 -151
18 -215 44 -289 19 -53 19 -51 3 -51 -8 0 -20 -11 -27 -25 -18 -33 -27 -32
-71 11 l-37 36 -26 -49 -25 -50 53 -52 c37 -36 57 -50 69 -45 10 3 24 1 32 -6
8 -6 19 -9 25 -5 6 4 9 1 8 -6 -7 -33 190 -119 272 -119 81 0 192 46 262 109
15 13 33 21 41 18 9 -3 36 17 70 51 l57 57 -25 53 c-22 48 -27 52 -45 42 -11
-6 -20 -14 -20 -18 0 -4 -10 -13 -22 -21 -19 -12 -23 -11 -34 4 -7 9 -17 14
-23 10 -13 -8 -15 17 -2 31 19 20 42 151 51 286 11 162 16 194 36 225 13 21
11 24 -49 56 -187 103 -258 137 -282 137 l-27 0 2 -212z m99 -337 c27 -7 78
-88 64 -101 -4 -4 -34 -3 -66 3 -52 9 -59 9 -73 -9 -8 -10 -13 -13 -9 -6 4 7
0 12 -10 12 -9 0 -13 -4 -10 -10 3 -6 -1 -7 -9 -4 -9 3 -14 9 -11 13 2 4 -12
8 -33 9 -22 1 -32 -2 -24 -6 7 -5 -5 -7 -28 -6 -23 1 -43 4 -46 7 -11 11 40
96 60 100 34 7 169 6 195 -2z m200 -305 c1 -4 -6 -6 -13 -3 -10 4 -13 1 -10
-8 4 -9 -4 -19 -20 -26 -14 -7 -23 -16 -20 -20 5 -8 -26 -14 -49 -10 -5 1 -6
-3 -3 -8 7 -11 -31 -26 -58 -22 -10 1 -16 -1 -13 -6 3 -4 -1 -16 -8 -26 -10
-15 -14 -15 -18 -3 -4 10 -15 13 -36 10 -20 -3 -31 -1 -31 7 0 8 -4 8 -12 2
-20 -16 -74 -23 -85 -12 -8 8 -17 7 -32 -1 -16 -8 -21 -8 -19 0 2 7 -26 30
-62 52 -88 54 -113 78 -99 95 19 22 39 15 50 -17 6 -16 14 -29 17 -28 4 1 17
-3 30 -10 12 -7 26 -10 31 -8 5 3 12 -1 15 -10 4 -10 12 -14 22 -10 8 3 23 -1
31 -10 9 -8 25 -13 35 -11 10 3 32 2 48 -3 19 -5 32 -5 36 2 3 5 15 8 25 5 10
-3 20 0 22 6 6 18 37 17 38 -1 0 -12 3 -10 9 6 6 12 18 22 30 22 11 0 20 5 20
11 0 6 9 9 19 6 12 -3 27 3 37 14 9 10 21 16 25 13 5 -3 9 1 9 8 0 8 6 20 12
26 10 10 14 9 20 -5 3 -10 7 -22 7 -27z"/>
<path d="M985 919 c-4 -6 -5 -12 -2 -15 2 -3 7 2 10 11 7 17 1 20 -8 4z"/>
<path d="M1052 894 c-7 -8 -8 -14 -3 -14 10 0 25 19 20 25 -2 1 -10 -3 -17
-11z"/>
<path d="M743 1325 c-10 -11 -8 -20 13 -44 30 -35 49 -39 57 -12 3 13 -5 29
-22 45 -31 30 -32 30 -48 11z"/>
<path d="M817 1233 c-23 -6 -16 -28 9 -28 13 0 18 -6 17 -20 -1 -19 64 -115
78 -115 4 0 17 8 30 19 l23 18 -44 52 c-24 28 -48 51 -54 50 -27 -3 -38 2 -32
16 6 15 4 16 -27 8z m112 -102 c11 -7 9 -11 -8 -20 -18 -10 -21 -9 -21 9 0 22
7 25 29 11z"/>
<path d="M1580 1615 c7 -9 15 -13 17 -11 7 7 -7 26 -19 26 -6 0 -6 -6 2 -15z"/>
<path d="M335 1550 c-3 -6 -3 -19 0 -30 7 -23 43 -27 51 -5 12 29 -35 61 -51
35z"/>
<path d="M286 1394 c-8 -22 1 -31 16 -16 9 9 9 15 1 23 -7 7 -12 5 -17 -7z"/>
<path d="M187 1294 c-4 -4 -7 -17 -7 -28 1 -19 1 -20 11 -3 11 19 8 43 -4 31z"/>
<path d="M751 211 c-17 -11 -10 -46 9 -46 17 0 26 33 13 46 -4 4 -14 4 -22 0z"/>
<path d="M1010 160 c0 -24 29 -38 40 -20 12 19 1 40 -21 40 -12 0 -19 -7 -19
-20z"/>
<path d="M1165 150 c-3 -5 1 -10 9 -10 9 0 16 5 16 10 0 6 -4 10 -9 10 -6 0
-13 -4 -16 -10z"/>
<path d="M878 183 c7 -3 16 -2 19 1 4 3 -2 6 -13 5 -11 0 -14 -3 -6 -6z"/>
<path d="M880 140 c0 -5 5 -10 10 -10 6 0 10 5 10 10 0 6 -4 10 -10 10 -5 0
-10 -4 -10 -10z"/>
</g>
</svg>
